<svg width="100" height="29" viewBox="0 0 100 29" fill="none" xmlns="http://www.w3.org/2000/svg">
<path fillRule="evenodd" clipRule="evenodd" d="M12.6261 3.88817L11.839 2.52137C11.6647 2.21799 11.7698 1.82963 12.0738 1.65491L14.813 0.084005C15.1162 -0.0899224 15.5061 0.0149103 15.6804 0.31829L16.4674 1.68509C18.679 5.50673 19.8011 9.7882 19.8011 14.0768C19.8011 18.3241 18.7005 22.5977 16.4674 26.4574L15.6732 27.8298C15.4989 28.1324 15.1082 28.2372 14.805 28.0625L9.47947 24.9937L9.47788 24.9961L6.18643 23.094C5.88323 22.9185 5.77898 22.5294 5.95485 22.2268L6.74827 20.8592C7.98654 18.7189 8.57623 16.3863 8.57623 14.0887C8.57623 12.5988 8.33033 11.1224 7.85683 9.7199C7.81863 9.60871 7.74064 9.52771 7.63002 9.48561C7.51941 9.44432 7.4072 9.45305 7.30454 9.51262L5.89437 10.3251C5.7384 10.4148 5.66757 10.5951 5.72089 10.7666C6.05115 11.8364 6.22145 12.9546 6.22145 14.0808C6.22065 15.9868 5.73442 17.9175 4.7126 19.6846L3.92555 21.0506C3.75127 21.354 3.36133 21.4588 3.05733 21.2849L0.31817 19.714C0.0149689 19.54 -0.0900775 19.1509 0.0842037 18.8475L0.871254 17.4807C1.49278 16.407 1.78802 15.2355 1.78802 14.0808C1.78802 12.8816 1.47129 11.699 0.872051 10.6602L0.0850003 9.29342C-0.0892809 8.99083 0.015765 8.60168 0.319762 8.42775L1.71322 7.62801L8.93275 3.46884C9.23675 3.29332 9.6267 3.39816 9.80177 3.70154L10.592 5.07072C12.1733 7.80988 13.0089 10.9279 13.0089 14.0887C13.0089 16.3403 12.5863 18.6132 11.7101 20.7853C11.6385 20.9624 11.7077 21.1618 11.8733 21.2571L13.2595 22.056C13.3582 22.1132 13.4657 22.1235 13.5731 22.087C13.6805 22.0505 13.7593 21.9774 13.8031 21.8718C14.8384 19.3749 15.3509 16.7246 15.3509 14.0768C15.3509 10.5331 14.4334 7.01251 12.6261 3.88817Z" fill="#FAD810"/>
<path d="M88.3765 12.3097H95.5411C95.4989 11.2932 95.1488 10.4775 94.4907 9.86283C93.8325 9.24813 92.9937 8.94157 91.9751 8.94157C90.9557 8.94157 90.128 9.25925 89.4914 9.8946C88.854 10.53 88.4831 11.3353 88.3765 12.3097ZM83.7592 14.1213C83.7592 11.5997 84.5288 9.50783 86.0678 7.8448C87.6069 6.18177 89.5551 5.35025 91.9115 5.35025C94.4588 5.35025 96.4436 6.13967 97.8665 7.71773C99.2886 9.29578 100 11.4623 100 14.2166C100 14.4024 99.9976 14.5684 99.9936 14.7137C99.9865 14.9679 99.778 15.1696 99.5233 15.1696H88.2492C88.2913 16.2926 88.7163 17.2091 89.5232 17.9191C90.3294 18.6283 91.3488 18.9833 92.5799 18.9833C94.1779 18.9833 95.4353 18.4258 96.3528 17.3107C96.5128 17.1162 96.7993 17.082 97.0006 17.2345L99.1819 18.8848C99.3817 19.0365 99.4278 19.3177 99.2854 19.5249C98.7968 20.2373 98.0471 20.9307 97.038 21.6049C95.8491 22.3999 94.3418 22.797 92.5163 22.797C89.8837 22.797 87.7661 21.9869 86.1634 20.366C84.5606 18.745 83.7592 16.6635 83.7592 14.1213Z" fill="white"/>
<path d="M77.7365 18.9198C78.8498 18.9198 79.9321 18.5513 80.9826 17.8158C81.1083 17.7277 81.2556 17.7062 81.402 17.7547C81.5476 17.8031 81.6527 17.908 81.7004 18.0541L82.5686 20.7011C82.6331 20.8973 82.567 21.103 82.4007 21.2253C80.977 22.2728 79.3369 22.797 77.4819 22.797C74.8923 22.797 72.7635 21.9814 71.0971 20.3501C69.4307 18.7188 68.5975 16.6428 68.5975 14.1213C68.5975 11.5997 69.4411 9.50783 71.129 7.8448C72.8169 6.18177 74.9241 5.35025 77.45 5.35025C79.2852 5.35025 80.942 5.87362 82.4214 6.92116C82.5933 7.04346 82.6625 7.25472 82.5949 7.45406L81.6813 10.1678C81.6312 10.3155 81.523 10.4204 81.3741 10.4664C81.2245 10.5125 81.0765 10.4863 80.9516 10.3926C79.9202 9.61584 78.7957 9.22748 77.5774 9.22748C76.1974 9.22748 75.0881 9.69367 74.2501 10.6253C73.4113 11.5576 72.9919 12.7124 72.9919 14.0895C72.9919 15.5087 73.4376 16.669 74.3297 17.5689C75.221 18.4695 76.3566 18.9198 77.7365 18.9198Z" fill="white"/>
<path d="M62.1292 21.9139V6.2334C62.1292 5.9745 62.3408 5.76324 62.6003 5.76324H66.0533C66.3119 5.76324 66.5236 5.9745 66.5236 6.2334V21.9139C66.5236 22.1728 66.3119 22.384 66.0533 22.384H62.6003C62.3408 22.384 62.1292 22.1728 62.1292 21.9139Z" fill="white"/>
<path d="M46.5537 14.1213C46.5537 15.5198 46.9834 16.669 47.8437 17.5689C48.7031 18.4695 49.791 18.9198 51.1073 18.9198C52.445 18.9198 53.5432 18.4695 54.4035 17.5689C55.263 16.669 55.6927 15.5198 55.6927 14.1213C55.6927 12.7021 55.2574 11.5314 54.3876 10.6094C53.517 9.68811 52.4235 9.22748 51.1073 9.22748C49.791 9.22748 48.7031 9.68811 47.8437 10.6094C46.9834 11.5314 46.5537 12.7021 46.5537 14.1213ZM44.6907 20.3501C43.0028 18.7188 42.1592 16.6428 42.1592 14.1213C42.1592 11.5997 43.0139 9.50783 44.7225 7.8448C46.4319 6.18177 48.5599 5.35025 51.1073 5.35025C53.6546 5.35025 55.7882 6.18732 57.5079 7.86068C59.2277 9.53404 60.0871 11.6212 60.0871 14.1213C60.0871 16.6428 59.2436 18.7188 57.5557 20.3501C55.8678 21.9814 53.7183 22.797 51.1073 22.797C48.5177 22.797 46.3786 21.9814 44.6907 20.3501Z" fill="white"/>
<path d="M35.8501 21.9139V12.6536C35.8501 11.2741 34.7224 10.1488 33.3401 10.1488H30.1187V21.9139C30.1187 22.1728 29.907 22.384 29.6476 22.384H26.1946C25.9352 22.384 25.7243 22.1728 25.7243 21.9139V10.1488V6.2334C25.7243 5.9745 25.9352 5.76324 26.1946 5.76324H30.1187H33.8128C37.355 5.76324 40.2445 8.64695 40.2445 12.1827V21.9139C40.2445 22.1728 40.0336 22.384 39.7742 22.384H36.3212C36.0618 22.384 35.8501 22.1728 35.8501 21.9139Z" fill="white"/>
</svg>
