<svg width="16" height="16" viewBox="0 0 16 16" fill="none" xmlns="http://www.w3.org/2000/svg">
    <path d="M13.3333 14.6667C13.7013 14.6667 14 14.9653 14 15.3333C14 15.7013 13.7013 16 13.3333 16H2.66667C1.93267 16 1.266 15.7 0.782667 15.2173C0.769334 15.2033 0.756 15.1893 0.744 15.1747C0.283334 14.694 0 14.0447 0 13.3333V2.66667C0 1.93267 0.3 1.266 0.782667 0.782667C1.26533 0.3 1.93267 0 2.66667 0H10C10.734 0 11.4007 0.3 11.884 0.782667C12.3667 1.266 12.6667 1.93267 12.6667 2.66667V5.23867C12.6667 5.60733 12.368 5.90533 12 5.90533C11.632 5.90533 11.3333 5.60733 11.3333 5.23867V2.66667C11.3333 2.30067 11.1827 1.96733 10.9413 1.72533C10.6993 1.48333 10.366 1.33333 10 1.33333H2.66667C2.30067 1.33333 1.96733 1.48333 1.72533 1.72533C1.48333 1.96733 1.33333 2.30067 1.33333 2.66667V13.3333C1.33333 13.6873 1.47133 14.0093 1.696 14.2467L1.72533 14.2747C1.96733 14.5167 2.30067 14.6667 2.66667 14.6667H13.3333Z" fill="white"/>
    <path d="M12 4.66675H13.3334C14.0647 4.66675 14.7307 4.96675 15.2147 5.44942L15.2174 5.45208C15.7 5.93675 16 6.60208 16 7.33341V13.6667C16 14.3074 15.738 14.8901 15.3154 15.3127L15.3127 15.3154C14.89 15.7381 14.3074 16.0001 13.6667 16.0001C13.026 16.0001 12.4434 15.7381 12.0207 15.3154L12.018 15.3127C11.596 14.8901 11.3334 14.3074 11.3334 13.6667V4.66675H12ZM13.3334 6.00008H12.6667V13.6667C12.6667 13.9421 12.7787 14.1927 12.96 14.3741C13.1414 14.5547 13.3914 14.6667 13.6667 14.6667C13.942 14.6667 14.1927 14.5547 14.374 14.3741C14.5547 14.1927 14.6667 13.9421 14.6667 13.6667V7.33341C14.6667 6.96541 14.5174 6.63275 14.2774 6.39208L14.2747 6.38941C14.0347 6.14941 13.7014 6.00008 13.3334 6.00008Z" fill="white"/>
    <path d="M3.33329 2.66675H9.33329C9.70129 2.66675 9.99996 2.96541 9.99996 3.33341V6.66675C9.99996 7.03475 9.70129 7.33341 9.33329 7.33341H3.33329C2.96463 7.33341 2.66663 7.03475 2.66663 6.66675V3.33341C2.66663 2.96541 2.96463 2.66675 3.33329 2.66675ZM8.66663 4.00008H3.99996V6.00008H8.66663V4.00008Z" fill="white"/>
    <path d="M3.33329 10.0001C2.96529 10.0001 2.66663 9.7014 2.66663 9.3334C2.66663 8.96541 2.96529 8.66675 3.33329 8.66675H9.33329C9.70129 8.66675 9.99996 8.96541 9.99996 9.3334C9.99996 9.7014 9.70129 10.0001 9.33329 10.0001H3.33329Z" fill="white"/>
    <path d="M3.33329 12.6666C2.96529 12.6666 2.66663 12.3686 2.66663 11.9999C2.66663 11.6319 2.96529 11.3333 3.33329 11.3333H7.33329C7.70129 11.3333 7.99996 11.6319 7.99996 11.9999C7.99996 12.3686 7.70129 12.6666 7.33329 12.6666H3.33329Z" fill="white"/>
</svg>
